<?xml version="1.0" encoding="UTF-8"?>
<!DOCTYPE svg PUBLIC "-//W3C//DTD SVG 1.1//EN" "http://www.w3.org/Graphics/SVG/1.1/DTD/svg11.dtd">
<!-- Creator: CorelDRAW 2020 (64 Bit) -->
<svg xmlns="http://www.w3.org/2000/svg" xml:space="preserve" width="22.6623mm" height="30.0074mm" version="1.1" style="shape-rendering:geometricPrecision; text-rendering:geometricPrecision; image-rendering:optimizeQuality; fill-rule:evenodd; clip-rule:evenodd"
viewBox="0 0 148.95 197.22"
 xmlns:xlink="http://www.w3.org/1999/xlink"
 xmlns:xodm="http://www.corel.com/coreldraw/odm/2003">
 <defs>
  <style type="text/css">
   <![CDATA[
    .fil0 {fill:white}
    .fil1 {fill:white;fill-rule:nonzero}
   ]]>
  </style>
 </defs>
 <g id="Camada_x0020_1">
  <metadata id="CorelCorpID_0Corel-Layer"/>
  <g id="_2174649563952">
   <path class="fil0" d="M56.87 101.24c0,-7.86 3.63,-16.16 9.14,-21.67 0.8,-0.8 1.26,-1.06 2.07,-1.79 0.74,-0.66 1.31,-1.1 2.16,-1.69 3.14,-2.18 6.82,-3.98 10.63,-4.77 4.78,-1 7.21,-1.18 12.05,-0.35 4.45,0.77 8.64,2.65 12.21,5.12 3.57,2.48 3.6,3.03 6.01,5.55 1.61,1.69 3.45,4.74 4.52,7.04 4.74,10.18 3.21,22.04 -3.64,31.12 -2.58,3.42 -5.57,5.85 -9.25,8.08 -2.44,1.48 -5.25,2.55 -8.25,3.3 -8.99,2.24 -20.41,-0.73 -26.43,-6.49 -2.52,-2.41 -3.07,-2.44 -5.55,-6.01 -3.42,-4.93 -5.66,-11.29 -5.66,-17.45zm32.92 39.62l-4.35 0c-5.96,-0.33 -11.83,-2.01 -17.07,-5.17 -4.37,-2.64 -4.28,-3.67 -7.64,-3.64 -3.66,0.04 -7.34,0 -11.01,0 -7.98,0 -13.84,1.02 -19.73,-2.56 -3.89,-2.36 -8.34,-7.84 -8.34,-13.95l0 -71.26c0,-0.84 2.07,-2.48 2.68,-3.09l38.65 -38.65c0.6,-0.6 2.13,-2.54 2.96,-2.54l36.04 0c7.87,0 15.09,6.86 16.4,14.96 0.56,3.42 0.1,11.63 0.1,15.58 0,6.79 -0.35,45.1 0.23,46.26 0.04,0.08 0.77,1.04 0.93,1.27 2.13,3.12 3.24,4.99 4.82,8.66 2.57,5.99 2.83,9.64 2.83,16.16 0,9.88 -5.06,20.05 -11.49,26.48 -6.97,6.97 -16.43,10.96 -26.02,11.49zm-41.73 -41.27c0,7.91 0.8,12.44 4.31,19.35 0.83,1.63 1.78,2.8 2.57,4.31 -4.45,0 -13.02,0.47 -16.91,-0.15 -4.96,-0.79 -7.57,-3.89 -7.57,-9.48l0 -60.8 27.79 0c7.62,0 16.23,-8.82 16.23,-17.33l0 -26.69 25.59 0c12.63,0 9.63,12.98 9.63,25.04 0,11.56 0,23.11 0,34.67 -1.42,-0.75 -2.67,-1.72 -4.12,-2.48 -19.62,-10.2 -43.4,-2.59 -53.84,18.25 -1.81,3.61 -3.66,10.03 -3.66,15.32zm-13.76 -55.57l31.3 -31.43c0.07,5.3 0.07,10.52 0.07,15.75 0,5.81 0.27,9.96 -2.67,13.01 -3.11,3.22 -7.01,2.67 -13.01,2.67 -5.23,0 -10.45,0 -15.68,0z"/>
   <polygon class="fil0" points="83.28,96.84 65.67,96.84 65.67,105.65 83.28,105.65 83.28,123.25 92.08,123.25 92.08,105.65 109.69,105.65 109.69,96.84 92.08,96.84 92.08,79.24 83.28,79.24 "/>
  </g>
  <path class="fil1" d="M23.67 197.22c6.12,0 10.76,-1.31 14.98,-4.28 0.32,-0.2 0.42,-0.66 0.42,-1.22 0,-1.34 -0.68,-3.39 -1.31,-4.83 -1.12,-2.52 -2.42,-4.19 -3.4,-4.19 -0.16,0 -0.32,0.03 -0.49,0.12 -2.9,1.96 -6.6,3.05 -10.07,3.05 -6.18,0 -11.67,-4.88 -11.67,-11.96 0,-7.13 5.49,-12.01 11.67,-12.01 3.47,0 7.2,1.05 10.07,3.08 0.17,0.1 0.3,0.16 0.46,0.16 1.12,0 2.46,-2.15 3.44,-4.44 0.59,-1.41 1.31,-3.4 1.31,-4.71 0,-0.53 -0.12,-0.92 -0.42,-1.11 -4.22,-3.05 -8.86,-4.25 -14.98,-4.25 -13.7,0 -23.67,9.97 -23.67,23.28 0,13.3 9.98,23.31 23.67,23.31zm26.72 -0.39c2.78,0 5.52,0 5.52,-1.34l0 -16.08c0,-3.4 1.41,-6.12 4.51,-6.12 0.85,0 1.7,0.17 2.85,0.81 0.2,0.13 0.39,0.2 0.59,0.2 1.14,0 2.12,-2.17 2.81,-4.25 0.42,-1.27 0.95,-2.85 0.95,-4.02 0,-0.63 -0.13,-1.12 -0.46,-1.44 -1.67,-1.47 -3.05,-2.06 -4.64,-2.06 -2.88,0 -5.27,1.51 -7.27,4.71l0 -2.88c0,-1.44 -2.58,-1.44 -5.17,-1.44 -2.58,0 -5.17,0 -5.17,1.44l0 31.13c0,1.34 2.72,1.34 5.47,1.34zm27.24 -37.05c4.49,0 6.57,-2.29 6.57,-6.08 0,-3.83 -2.09,-6.12 -6.57,-6.12 -4.48,0 -6.57,2.29 -6.57,6.12 0,3.79 2.1,6.08 6.57,6.08zm0 37.05c2.74,0 5.46,0 5.46,-1.34l0 -31.26c0,-1.34 -2.71,-1.34 -5.42,-1.34 -2.78,0 -5.53,0 -5.53,1.34l0 31.26c0,1.34 2.75,1.34 5.49,1.34zm20.89 0.37c4.44,0 7.12,-1.81 9.02,-4.55l0 2.88c0,1.31 2.56,1.31 5.1,1.31 2.52,0 5.05,0 5.05,-1.31l0 -20.24c0,-9.23 -5.1,-12.76 -13.38,-12.76 -4.48,0 -8.34,1.08 -12.85,3.5 -0.49,0.26 -0.69,0.72 -0.69,1.31 0,0.92 0.49,2.12 1.02,3.39 0.79,1.9 1.74,3.67 2.68,3.67 0.13,0 0.27,-0.03 0.4,-0.1 3.46,-1.83 6.37,-2.46 8.88,-2.46 2.06,0 3.01,1.08 3.01,2.58l0 1.64 -4.78 0.92c-7.42,1.44 -12.68,5.03 -12.68,11.15 0,6.15 4.09,9.06 9.22,9.06zm4.22 -9.1c-1.47,0 -2.46,-0.88 -2.46,-2.12 0,-1.44 1.17,-2.42 2.65,-2.66l3.83 -0.78 0 2.07c0,1.56 -1.34,3.49 -4.02,3.49zm28.97 8.73c2.78,0 5.52,0 5.52,-1.34l0 -16.08c0,-3.4 1.41,-6.12 4.51,-6.12 0.85,0 1.7,0.17 2.85,0.81 0.2,0.13 0.39,0.2 0.59,0.2 1.14,0 2.12,-2.17 2.81,-4.25 0.42,-1.27 0.95,-2.85 0.95,-4.02 0,-0.63 -0.13,-1.12 -0.46,-1.44 -1.67,-1.47 -3.05,-2.06 -4.64,-2.06 -2.88,0 -5.27,1.51 -7.27,4.71l0 -2.88c0,-1.44 -2.58,-1.44 -5.17,-1.44 -2.58,0 -5.17,0 -5.17,1.44l0 31.13c0,1.34 2.72,1.34 5.47,1.34z"/>
 </g>
</svg>
