<?xml version="1.0" encoding="UTF-8"?>
<!DOCTYPE svg PUBLIC "-//W3C//DTD SVG 1.1//EN" "http://www.w3.org/Graphics/SVG/1.1/DTD/svg11.dtd">
<!-- Creator: CorelDRAW 2020 (64 Bit) -->
<svg xmlns="http://www.w3.org/2000/svg" xml:space="preserve" width="44.9653mm" height="30.0334mm" version="1.1" style="shape-rendering:geometricPrecision; text-rendering:geometricPrecision; image-rendering:optimizeQuality; fill-rule:evenodd; clip-rule:evenodd"
viewBox="0 0 1117.14 746.16"
 xmlns:xlink="http://www.w3.org/1999/xlink"
 xmlns:xodm="http://www.corel.com/coreldraw/odm/2003">
 <defs>
  <style type="text/css">
   <![CDATA[
    .fil1 {fill:white}
    .fil0 {fill:white;fill-rule:nonzero}
   ]]>
  </style>
 </defs>
 <g id="Camada_x0020_1">
  <metadata id="CorelCorpID_0Corel-Layer"/>
  <path class="fil0" d="M681.62 226.9c-2.52,-5.57 -8.06,-9.12 -14.16,-9.12l-62.22 0 0 -202.23c0,-8.59 -6.97,-15.56 -15.56,-15.56l-62.22 0c-8.59,0 -15.56,6.97 -15.56,15.56l0 202.23 -62.22 0c-6.1,0 -11.64,3.58 -14.16,9.12 -2.55,5.57 -1.56,12.07 2.46,16.68l108.89 124.45c2.96,3.39 7.22,5.32 11.7,5.32 4.48,0 8.74,-1.96 11.7,-5.32l108.89 -124.45c4.04,-4.57 4.98,-11.11 2.46,-16.68z"/>
  <path class="fil1" d="M770.38 273.35c71.55,0 129.56,58 129.56,129.56 0,71.55 -58.01,129.56 -129.56,129.56 -34.08,0 -65.08,-13.17 -88.21,-34.68l-325.83 0c-17.17,0 -31.11,-13.91 -31.11,-31.11l0 -124.45 62.22 0 0 93.34 257.52 0c-2.71,-10.43 -4.15,-21.37 -4.15,-32.66 0,-71.55 58.01,-129.56 129.56,-129.56zm-13.12 204.29l0 -61.93 -61.62 0 0 -25.91 61.62 0 0 -61.62 26.23 0 0 61.62 61.62 0 0 25.91 -61.62 0 0 61.93 -26.23 0z"/>
  <path class="fil0" d="M21.3 744.77c12,0 23.87,-0.13 25.61,-4.06l8.91 -21.67 63.26 0 8.79 21.67c1.6,3.93 13.48,4.06 25.52,4.06 10.65,0 21.38,-0.26 21.38,-4.7 0,-0.5 -0.08,-1.1 -0.46,-1.73l-79.61 -166.4c-1.22,-2.45 -4.22,-2.45 -7.31,-2.45 -3.08,0 -6.17,0 -7.44,2.45l-79.48 166.28c-0.34,0.76 -0.47,1.35 -0.47,1.86 0,4.7 10.65,4.7 21.3,4.7zm66.34 -98.8l16.61 38.63 -33.21 0 16.61 -38.63zm145.71 100.19c12.76,0 26.41,-6.34 35.67,-19.56l0 13.22c0,4.95 9.8,4.95 19.56,4.95 9.68,0 19.44,0 19.44,-4.95l0 -177.9c0,-5.07 -10.27,-5.07 -20.66,-5.07 -10.4,0 -20.66,0 -20.66,5.07l0 70.82c-8.71,-12.5 -21.56,-17.83 -33.34,-17.83 -31.57,0 -52.61,29.46 -52.61,65.62 0,36.13 21.04,65.62 52.61,65.62zm12.17 -39.25c-13.65,0 -23.29,-11.79 -23.29,-26.37 0,-14.62 9.64,-26.5 23.29,-26.5 13.86,0 23.5,11.88 23.5,26.5 0,14.58 -9.64,26.37 -23.5,26.37zm119.08 -102.39c16.99,0 24.88,-8.66 24.88,-23.03 0,-14.49 -7.9,-23.15 -24.88,-23.15 -16.95,0 -24.89,8.66 -24.89,23.15 0,14.37 7.94,23.03 24.89,23.03zm0 140.25c10.39,0 20.66,0 20.66,-5.07l0 -118.36c0,-5.07 -10.27,-5.07 -20.54,-5.07 -10.52,0 -20.92,0 -20.92,5.07l0 118.36c0,5.07 10.4,5.07 20.79,5.07zm104.2 1.39c15.38,0 29.24,-2.49 41.5,-9.67 1.22,-0.64 1.73,-2.37 1.73,-4.56 0,-4.73 -2.11,-11.67 -4.1,-16.86 -2.83,-7.57 -6.67,-15.21 -10.78,-15.21 -0.59,0 -1.1,0.12 -1.73,0.38 -6.93,4.19 -14.33,6.68 -22.39,6.68 -13.99,0 -23.62,-11.28 -23.62,-26.37 0,-15.25 9.63,-26.5 23.62,-26.5 8.07,0 15.34,2.58 22.06,6.55 0.46,0.38 1.1,0.51 1.6,0.51 4.05,0 8.66,-8.54 11.62,-16.36 1.86,-4.69 3.97,-10.78 3.97,-15.09 0,-2.49 -0.63,-4.35 -2.24,-5.19 -12.25,-7.06 -25.6,-9.55 -41.24,-9.55 -33.51,0 -61.27,25.53 -61.27,65.62 0,40.48 27.76,65.62 61.27,65.62zm88.41 -141.64c16.99,0 24.88,-8.66 24.88,-23.03 0,-14.49 -7.9,-23.15 -24.88,-23.15 -16.95,0 -24.89,8.66 -24.89,23.15 0,14.37 7.94,23.03 24.89,23.03zm0 140.25c10.39,0 20.66,0 20.66,-5.07l0 -118.36c0,-5.07 -10.27,-5.07 -20.54,-5.07 -10.52,0 -20.92,0 -20.92,5.07l0 118.36c0,5.07 10.4,5.07 20.79,5.07zm107.33 1.39c39.59,0 64.36,-29.49 64.36,-65.62 0,-36.29 -24.76,-65.62 -64.36,-65.62 -39.51,0 -64.14,29.33 -64.14,65.62 0,36.13 24.63,65.62 64.14,65.62zm0 -39.25c-13.65,0 -22.78,-11.79 -22.78,-26.37 0,-14.75 9.13,-26.5 22.78,-26.5 13.73,0 22.9,11.88 22.9,26.5 0,14.49 -9.17,26.37 -22.9,26.37zm110.55 37.87c10.39,0 20.79,0 20.79,-5.07l0 -66.09c0,-10.52 6.55,-19.57 18.3,-19.57 10.18,0 14.88,7.57 14.88,16.11l0 69.55c0,5.07 10.52,5.07 20.79,5.07 10.52,0 20.79,0 20.79,-5.07l0 -72.3c0,-32.79 -17.33,-52.48 -43.19,-52.48 -15.46,0 -25.86,8.66 -33.93,19.82l0 -13.4c0,-4.94 -9.76,-4.94 -19.57,-4.94 -9.76,0 -19.56,0 -19.56,4.94l0 118.36c0,5.07 10.31,5.07 20.7,5.07zm151.15 1.39c16.82,0 26.96,-6.84 34.15,-17.24l0 10.9c0,4.95 9.68,4.95 19.31,4.95 9.55,0 19.1,0 19.1,-4.95l0 -76.61c0,-34.94 -19.31,-48.3 -50.66,-48.3 -16.94,0 -31.57,4.1 -48.64,13.27 -1.86,0.98 -2.62,2.71 -2.62,4.95 0,3.47 1.86,8.03 3.85,12.85 3,7.18 6.59,13.9 10.14,13.9 0.51,0 1.01,-0.12 1.52,-0.38 13.1,-6.93 24.13,-9.3 33.63,-9.3 7.82,0 11.41,4.1 11.41,9.76l0 6.21 -18.09 3.47c-28.1,5.45 -48,19.06 -48,42.21 0,23.29 15.47,34.31 34.9,34.31zm15.97 -34.44c-5.58,0 -9.3,-3.34 -9.3,-8.03 0,-5.45 4.44,-9.17 10.01,-10.06l14.49 -2.95 0 7.82c0,5.92 -5.07,13.22 -15.21,13.22zm109.7 33.05c10.52,0 20.91,0 20.91,-5.07l0 -60.89c0,-12.89 5.32,-23.15 17.07,-23.15 3.21,0 6.42,0.63 10.78,3.08 0.76,0.5 1.48,0.76 2.24,0.76 4.31,0 8.02,-8.2 10.65,-16.1 1.6,-4.81 3.59,-10.78 3.59,-15.21 0,-2.37 -0.5,-4.22 -1.73,-5.45 -6.34,-5.58 -11.54,-7.82 -17.58,-7.82 -10.9,0 -19.95,5.71 -27.51,17.83l0 -10.9c0,-5.45 -9.76,-5.45 -19.57,-5.45 -9.76,0 -19.56,0 -19.56,5.45l0 117.85c0,5.07 10.31,5.07 20.71,5.07z"/>
 </g>
</svg>
