<?xml version="1.0" encoding="UTF-8"?>
<!DOCTYPE svg PUBLIC "-//W3C//DTD SVG 1.1//EN" "http://www.w3.org/Graphics/SVG/1.1/DTD/svg11.dtd">
<!-- Creator: CorelDRAW 2020 (64 Bit) -->
<svg xmlns="http://www.w3.org/2000/svg" xml:space="preserve" width="46.5745mm" height="30.0489mm" version="1.1" style="shape-rendering:geometricPrecision; text-rendering:geometricPrecision; image-rendering:optimizeQuality; fill-rule:evenodd; clip-rule:evenodd"
viewBox="0 0 14213.16 9170.04"
 xmlns:xlink="http://www.w3.org/1999/xlink"
 xmlns:xodm="http://www.corel.com/coreldraw/odm/2003">
 <defs>
  <style type="text/css">
   <![CDATA[
    .str0 {stroke:white;stroke-width:23.25;stroke-miterlimit:22.9256}
    .fil0 {fill:white;fill-rule:nonzero}
    .fil1 {fill:white;fill-rule:nonzero}
   ]]>
  </style>
 </defs>
 <g id="Camada_x0020_1">
  <metadata id="CorelCorpID_0Corel-Layer"/>
  <g id="_2203345671904">
   <g>
    <g>
     <g>
      <path class="fil0" d="M7106.6 0c-1803.31,0 -3270.24,1467.05 -3270.24,3270.24 0,1803.16 1466.92,3270.21 3270.24,3270.21 1803.28,0 3270.21,-1467.05 3270.21,-3270.21 0,-1803.19 -1466.92,-3270.24 -3270.21,-3270.24zm1300.03 3384.8l-1907.62 1226.33c-22.34,14.5 -48.16,21.7 -73.7,21.7 -22.37,0 -44.98,-5.58 -65.21,-16.63 -43.91,-23.96 -71.07,-69.73 -71.07,-119.63l0 -2452.69c0,-49.9 27.16,-95.67 71.07,-119.63 43.12,-23.68 97.14,-22.22 138.91,5.07l1907.62 1226.33c38.88,25.02 62.56,68.27 62.56,114.59 0,46.29 -23.68,89.54 -62.56,114.56z" data-original="#000000" data-old_color="#000000"/>
     </g>
    </g>
   </g>
  </g>
  <path class="fil1 str0" d="M1110.76 9158.41c284.05,0 499.63,-60.67 695.51,-198.54 14.98,-9.34 19.68,-30.55 19.68,-56.49 0,-62.13 -31.59,-157.56 -60.67,-224.39 -51.79,-117.09 -112.46,-194.36 -158.05,-194.36 -7.2,0 -14.98,1.62 -22.8,5.74 -134.7,91.22 -306.27,141.48 -467.43,141.48 -287.13,0 -542.07,-226.47 -542.07,-555.53 0,-331.2 254.94,-557.64 542.07,-557.64 161.16,0 334.28,48.67 467.43,143 7.81,4.7 14.04,7.26 21.24,7.26 51.85,0 114.07,-100.03 159.6,-206.26 27.5,-65.28 60.67,-158.05 60.67,-218.65 0,-24.38 -5.71,-42.54 -19.68,-51.33 -195.89,-141.48 -411.46,-197.45 -695.51,-197.45 -635.88,0 -1099.13,462.73 -1099.13,1081.07 0,617.73 463.25,1082.1 1099.13,1082.1zm1627.78 -1.1c485.59,0 789.32,-361.69 789.32,-804.83 0,-445.12 -303.74,-804.83 -789.32,-804.83 -484.55,0 -786.67,359.7 -786.67,804.83 0,443.14 302.12,804.83 786.67,804.83zm0 -481.41c-167.39,0 -279.32,-144.62 -279.32,-323.42 0,-180.84 111.94,-324.95 279.32,-324.95 168.42,0 280.88,145.66 280.88,324.95 0,177.76 -112.46,323.42 -280.88,323.42zm1355.78 464.35c127.44,0 254.97,0 254.97,-62.19l0 -810.56c0,-129.06 80.35,-239.96 224.39,-239.96 124.88,0 182.46,92.77 182.46,197.51l0 853.01c0,62.19 128.97,62.19 254.94,62.19 129.06,0 254.97,0 254.97,-62.19l0 -886.73c0,-402.15 -212.49,-643.67 -529.68,-643.67 -189.63,0 -317.07,106.23 -416.1,243.07l0 -164.3c0,-60.61 -119.72,-60.61 -239.96,-60.61 -119.75,0 -239.89,0 -239.89,60.61l0 1451.63c0,62.19 126.4,62.19 253.9,62.19zm2234.67 17.06c174.65,0 315.61,-29.02 449.3,-105.19 17.12,-8.82 22.77,-30.03 22.77,-55.97 0,-54.41 -27.4,-135.22 -48.71,-191.19 -31.59,-89.69 -64.79,-165.86 -110.38,-165.86 -7.72,0 -15.5,1.56 -22.8,6.26 -68.36,39.37 -143,59.05 -205.23,59.05 -95.34,0 -127.5,-74.13 -127.5,-151.33l0 -533.25 317.16 0c65.31,0 65.31,-110.9 65.31,-220.27 0,-110.41 0,-219.78 -65.31,-219.78l-317.16 0 0 -394.89c0,-62.13 -127.44,-62.13 -254.94,-62.13 -125.91,0 -254.97,0 -254.97,62.13l0 394.89 -223.35 0c-62.22,0 -62.22,109.37 -62.22,219.78 0,109.37 0,220.27 62.22,220.27l223.35 0 0 533.25c0,385.55 178.8,604.24 552.45,604.24zm938.55 -1737.15c208.34,0 305.2,-106.23 305.2,-282.44 0,-177.76 -96.86,-283.96 -305.2,-283.96 -207.85,0 -305.26,106.2 -305.26,283.96 0,176.21 97.41,282.44 305.26,282.44zm0 1720.09c127.44,0 253.41,0 253.41,-62.19l0 -1451.63c0,-62.16 -125.97,-62.16 -251.86,-62.16 -129.06,0 -256.56,0 -256.56,62.16l0 1451.63c0,62.19 127.5,62.19 255,62.19zm929.18 0c127.44,0 254.97,0 254.97,-62.19l0 -810.56c0,-129.06 80.35,-239.96 224.39,-239.96 124.88,0 182.46,92.77 182.46,197.51l0 853.01c0,62.19 128.97,62.19 254.94,62.19 129.06,0 254.97,0 254.97,-62.19l0 -886.73c0,-402.15 -212.52,-643.67 -529.68,-643.67 -189.66,0 -317.1,106.23 -416.1,243.07l0 -164.3c0,-60.61 -119.72,-60.61 -239.99,-60.61 -119.72,0 -239.89,0 -239.89,60.61l0 1451.63c0,62.19 126.43,62.19 253.93,62.19zm2041.83 17.06c189.72,0 317.16,-106.72 416.19,-243.07l0 163.82c0,62.19 119.72,62.19 239.96,62.19 119.66,0 239.89,0 239.89,-62.19l0 -1451.63c0,-62.16 -126.4,-62.16 -253.9,-62.16 -127.53,0 -254.97,0 -254.97,62.16l0 811.05c0,129.06 -80.35,239.96 -224.39,239.96 -123.41,0 -182.46,-91.22 -182.46,-197.41l0 -853.59c0,-62.16 -127.5,-62.16 -254.94,-62.16 -125.97,0 -254.97,0 -254.97,62.16l0 888.32c0,401.12 212.43,642.57 529.59,642.57zm1621.61 0c206.26,0 330.68,-83.95 418.75,-211.39l0 133.66c0,60.67 118.71,60.67 236.81,60.67 117.15,0 234.25,0 234.25,-60.67l0 -939.59c0,-428.52 -236.81,-592.34 -621.36,-592.34 -207.79,0 -387.17,50.26 -596.49,162.72 -22.77,11.96 -32.1,33.2 -32.1,60.67 0,42.51 22.77,98.51 47.15,157.56 36.8,88.07 80.81,170.47 124.36,170.47 6.26,0 12.42,-1.53 18.65,-4.61 160.64,-84.99 295.95,-114.07 412.53,-114.07 95.85,0 139.92,50.29 139.92,119.72l0 76.17 -221.83 42.51c-344.63,66.86 -588.73,233.73 -588.73,517.72 0,285.58 189.75,420.8 428.09,420.8zm195.89 -422.36c-68.39,0 -113.98,-40.92 -113.98,-98.42 0,-66.86 54.41,-112.46 122.8,-123.41l177.76 -36.22 0 95.88c0,72.57 -62.22,162.17 -186.58,162.17zm1345.37 405.3c129.06,0 256.5,0 256.5,-62.19l0 -746.78c0,-158.08 65.31,-283.99 209.41,-283.99 39.37,0 78.73,7.72 132.14,37.84 9.34,6.16 18.16,9.34 27.47,9.34 52.83,0 98.45,-100.58 130.61,-197.54 19.68,-59.05 44.01,-132.14 44.01,-186.55 0,-29.02 -6.19,-51.79 -21.24,-66.86 -77.73,-68.36 -141.48,-95.85 -215.57,-95.85 -133.7,0 -244.62,70.01 -337.37,218.69l0 -133.7c0,-66.83 -119.75,-66.83 -239.99,-66.83 -119.72,0 -239.89,0 -239.89,66.83l0 1445.41c0,62.19 126.4,62.19 253.93,62.19z"/>
 </g>
</svg>
