<?xml version="1.0" encoding="UTF-8"?>
<!DOCTYPE svg PUBLIC "-//W3C//DTD SVG 1.1//EN" "http://www.w3.org/Graphics/SVG/1.1/DTD/svg11.dtd">
<!-- Creator: CorelDRAW 2020 (64 Bit) -->
<svg xmlns="http://www.w3.org/2000/svg" xml:space="preserve" width="31.5379mm" height="29.9096mm" version="1.1" style="shape-rendering:geometricPrecision; text-rendering:geometricPrecision; image-rendering:optimizeQuality; fill-rule:evenodd; clip-rule:evenodd"
viewBox="0 0 733.22 695.36"
 xmlns:xlink="http://www.w3.org/1999/xlink"
 xmlns:xodm="http://www.corel.com/coreldraw/odm/2003">
 <defs>
  <style type="text/css">
   <![CDATA[
    .fil0 {fill:white;fill-rule:nonzero}
    .fil1 {fill:white;fill-rule:nonzero}
   ]]>
  </style>
 </defs>
 <g id="Camada_x0020_1">
  <metadata id="CorelCorpID_0Corel-Layer"/>
  <g id="_2239521406144">
   <g>
    <path class="fil0" d="M288.55 45.3c0,-14.85 11.59,-25.71 26.45,-25.71l108.71 0c14.85,0 26.44,10.86 26.44,25.71l0 28.16 19.59 0 0 -28.16c0,-25.65 -20.38,-45.3 -46.03,-45.3l-108.71 0c-25.65,0 -46.04,19.65 -46.04,45.3l0 28.16 19.59 0 0 -28.16zm0 0z" data-original="#000000" data-old_color="#000000"/>
    <path class="fil0" d="M253.54 498.27l231.63 0c22.33,0 39.66,-19.65 39.66,-44.07l0 -302.39 -310.96 0 0 302.39c0,24.43 17.33,44.07 39.67,44.07l-0 0zm178.25 -299.7c0,-5.41 4.39,-9.79 9.79,-9.79 5.41,0 9.79,4.39 9.79,9.79l0 231.38c0,5.41 -4.39,9.79 -9.79,9.79 -5.41,0 -9.79,-4.39 -9.79,-9.79l0 -231.38zm-72.23 0c0,-5.41 4.38,-9.79 9.79,-9.79 5.41,0 9.79,4.39 9.79,9.79l0 231.38c0,5.41 -4.38,9.79 -9.79,9.79 -5.41,0 -9.79,-4.39 -9.79,-9.79l0 -231.38zm-72.23 0c0,-5.41 4.38,-9.79 9.79,-9.79 5.41,0 9.79,4.39 9.79,9.79l0 231.38c0,5.41 -4.38,9.79 -9.79,9.79 -5.41,0 -9.79,-4.39 -9.79,-9.79l0 -231.38zm0 0z" data-original="#000000" data-old_color="#000000"/>
    <path class="fil0" d="M203.83 132.22l331.04 0c13.52,0 24.48,-10.96 24.48,-24.48 0,-13.52 -10.96,-24.49 -24.48,-24.49l-331.04 0c-13.52,0 -24.48,10.96 -24.48,24.49 0,13.52 10.96,24.48 24.48,24.48l0 0zm0 0z" data-original="#000000" data-old_color="#000000"/>
   </g>
  </g>
  <path class="fil1" d="M3.08 693.07l104.15 0c4.91,0 5.03,-9.58 5.03,-18.94 0,-9.59 -0.12,-19.1 -5.14,-19.1l-67.94 0.11 0 -26.93 56.28 0c4.68,0 4.8,-8.34 4.8,-16.68 0,-8.23 -0.12,-16.57 -4.8,-16.57l-56.28 0 0 -22.02 68.06 0c4.91,0 5.03,-9.47 5.03,-19.06 0,-9.51 -0.12,-18.87 -5.03,-18.87l-104.15 0.12c-1.72,0 -3.08,1.36 -3.08,3.2l0 151.43c0,1.72 1.36,3.31 3.08,3.31zm139.78 1.02c10.6,0 21.01,0 22.84,-3.55l19.96 -36.18 19.88 36.18c1.72,3.55 12.12,3.55 22.72,3.55 9.16,0 18.4,0 18.4,-4.09 0,-0.59 -0.24,-1.13 -0.59,-1.95l-32.9 -55.86 31.42 -50.55c0.46,-0.82 0.7,-1.52 0.7,-2.06 0,-4.02 -9.28,-4.02 -18.4,-4.02 -10.49,0 -21.01,0 -22.73,3.55l-18.51 31.84 -18.48 -31.84c-1.71,-3.55 -12.35,-3.55 -22.84,-3.55 -9.12,0 -18.39,0 -18.39,4.02 0,0.54 0.23,1.24 0.7,2.06l31.37 50.55 -32.86 55.86c-0.47,0.82 -0.58,1.48 -0.58,2.07 0,3.98 9,3.98 18.28,3.98zm168.3 1.28c14.19,0 26.97,-2.3 38.28,-8.92 1.13,-0.59 1.6,-2.18 1.6,-4.21 0,-4.37 -1.95,-10.76 -3.78,-15.55 -2.61,-6.98 -6.15,-14.03 -9.94,-14.03 -0.54,0 -1.01,0.12 -1.59,0.35 -6.39,3.86 -13.21,6.16 -20.66,6.16 -12.91,0 -21.79,-10.41 -21.79,-24.33 0,-14.07 8.88,-24.44 21.79,-24.44 7.44,0 14.15,2.38 20.35,6.04 0.43,0.36 1.01,0.47 1.48,0.47 3.74,0 7.99,-7.87 10.72,-15.09 1.71,-4.33 3.66,-9.94 3.66,-13.92 0,-2.3 -0.59,-4.01 -2.07,-4.79 -11.3,-6.51 -23.62,-8.81 -38.04,-8.81 -30.91,0 -56.52,23.54 -56.52,60.53 0,37.34 25.61,60.53 56.52,60.53zm93.9 0c6.39,0 13.1,-0.58 19.72,-1.94 4.13,-0.82 4.13,-9.82 4.13,-18.75 0,-8.34 0,-16.57 -4.13,-16.57 -0.31,0 -0.66,0 -1.01,0.12 -2.42,0.7 -4.56,0.93 -6.51,0.93 -4.68,0 -6.51,-2.85 -6.51,-6.74l0 -126.64c0,-4.68 -9.59,-4.68 -19.18,-4.68 -9.59,0 -19.18,0 -19.18,4.68l0 135.1c0,18.83 10.49,34.49 32.66,34.49zm80.02 0c14.27,0 23.85,-8.03 31.3,-18.28l0 12.32c0,4.68 9.01,4.68 18.05,4.68 9,0 18.04,0 18.04,-4.68l0 -109.18c0,-4.67 -9.51,-4.67 -19.1,-4.67 -9.59,0 -19.18,0 -19.18,4.67l0 61c0,9.71 -6.04,18.05 -16.88,18.05 -9.28,0 -13.72,-6.86 -13.72,-14.85l0 -64.2c0,-4.67 -9.59,-4.67 -19.18,-4.67 -9.48,0 -19.18,0 -19.18,4.67l0 66.81c0,30.17 15.98,48.33 39.83,48.33zm118.07 -130.65c15.67,0 22.95,-7.99 22.95,-21.24 0,-13.37 -7.29,-21.36 -22.95,-21.36 -15.63,0 -22.96,7.99 -22.96,21.36 0,13.25 7.33,21.24 22.96,21.24zm0 129.37c9.59,0 19.06,0 19.06,-4.68l0 -109.18c0,-4.67 -9.47,-4.67 -18.94,-4.67 -9.71,0 -19.3,0 -19.3,4.67l0 109.18c0,4.68 9.59,4.68 19.18,4.68zm69.89 0c9.71,0 19.29,0 19.29,-4.68l0 -56.17c0,-11.89 4.91,-21.36 15.75,-21.36 2.96,0 5.92,0.58 9.94,2.85 0.7,0.46 1.36,0.7 2.07,0.7 3.97,0 7.4,-7.57 9.82,-14.86 1.48,-4.44 3.31,-9.94 3.31,-14.03 0,-2.18 -0.46,-3.89 -1.6,-5.03 -5.84,-5.14 -10.64,-7.21 -16.21,-7.21 -10.06,0 -18.4,5.26 -25.37,16.45l0 -10.06c0,-5.03 -9,-5.03 -18.05,-5.03 -9.01,0 -18.04,0 -18.04,5.03l0 108.71c0,4.68 9.51,4.68 19.1,4.68z"/>
 </g>
</svg>
