<?xml version="1.0" encoding="UTF-8"?>
<!DOCTYPE svg PUBLIC "-//W3C//DTD SVG 1.1//EN" "http://www.w3.org/Graphics/SVG/1.1/DTD/svg11.dtd">
<!-- Creator: CorelDRAW 2020 (64 Bit) -->
<svg xmlns="http://www.w3.org/2000/svg" xml:space="preserve" width="15mm" height="15mm" version="1.1" style="shape-rendering:geometricPrecision; text-rendering:geometricPrecision; image-rendering:optimizeQuality; fill-rule:evenodd; clip-rule:evenodd"
viewBox="0 0 261.41 261.41"
 xmlns:xlink="http://www.w3.org/1999/xlink"
 xmlns:xodm="http://www.corel.com/coreldraw/odm/2003">
 <defs>
  <style type="text/css">
   <![CDATA[
    .fil2 {fill:#2170A6;fill-rule:nonzero}
    .fil0 {fill:#87D2F3;fill-rule:nonzero}
    .fil1 {fill:white;fill-rule:nonzero}
   ]]>
  </style>
 </defs>
 <g id="Camada_x0020_1">
  <metadata id="CorelCorpID_0Corel-Layer"/>
  <g id="_2239477197616">
   <path class="fil0" d="M255.97 108.92l0 43.57c0,3.01 -2.44,5.45 -5.45,5.45l-25.71 0c-1.99,6.99 -4.76,13.73 -8.28,20.1l18.14 18.14c2.11,2.12 2.11,5.56 0,7.68l-30.77 30.82c-2.14,2.12 -5.59,2.12 -7.73,0l-18.14 -18.14c-6.36,3.51 -13.1,6.29 -20.1,8.28l0 25.71c0,3.01 -2.44,5.45 -5.45,5.45l-43.57 -0c-3.01,0 -5.45,-2.44 -5.45,-5.45l-0 -25.71c-6.99,-1.99 -13.73,-4.76 -20.1,-8.28l-18.14 18.14c-2.14,2.12 -5.59,2.12 -7.73,0l-30.77 -30.82c-2.11,-2.12 -2.11,-5.56 0,-7.68l18.14 -18.14c-3.51,-6.36 -6.29,-13.11 -8.28,-20.1l-25.7 0c-3.01,0 -5.45,-2.44 -5.45,-5.45l0 -43.57c0,-3.01 2.44,-5.45 5.45,-5.45l25.71 0c1.99,-6.99 4.76,-13.73 8.28,-20.1l-18.14 -18.14c-2.12,-2.14 -2.12,-5.59 0,-7.73l30.77 -30.77c2.14,-2.12 5.59,-2.12 7.73,0l18.14 18.14c6.36,-3.51 13.1,-6.29 20.1,-8.28l0 -25.71c0,-3.01 2.44,-5.45 5.45,-5.45l43.57 0c3.01,0 5.45,2.44 5.45,5.45l0 25.71c6.99,1.99 13.73,4.76 20.1,8.28l18.14 -18.14c2.14,-2.12 5.59,-2.12 7.73,0l30.77 30.77c2.12,2.14 2.12,5.59 0,7.73l-18.14 18.14c3.51,6.36 6.29,13.1 8.28,20.1l25.71 0c3.01,0 5.44,2.44 5.44,5.45l0 0z"/>
   <g>
    <polygon class="fil1" points="157.94,136.15 157.94,152.49 103.48,152.49 103.48,136.15 103.48,108.92 157.94,108.92 157.94,136.15 "/>
    <path class="fil1" d="M157.94 152.49l0 -43.57 -54.46 0 0 43.57 54.46 0zm16.34 -54.46l0 65.35c-0.02,6.01 -4.88,10.87 -10.89,10.89l-65.35 0c-6.01,-0.02 -10.87,-4.88 -10.89,-10.89l0 -65.35c0.02,-6.01 4.88,-10.87 10.89,-10.89l65.35 0c6.01,0.02 10.87,4.88 10.89,10.89z"/>
   </g>
   <g>
    <path class="fil2" d="M250.52 98.03l-21.68 0c-1.54,-4.67 -3.42,-9.22 -5.63,-13.62l15.3 -15.3c4.21,-4.28 4.21,-11.16 0,-15.44l-30.81 -30.84c-4.29,-4.17 -11.13,-4.15 -15.4,0.05l-15.31 15.3c-4.4,-2.2 -8.95,-4.08 -13.62,-5.62l0 -21.68c0,-6.02 -4.88,-10.89 -10.89,-10.89l-43.57 0c-6.02,0 -10.89,4.88 -10.89,10.89l0 21.68c-4.67,1.54 -9.22,3.42 -13.62,5.62l-15.32 -15.32c-4.28,-4.21 -11.15,-4.21 -15.43,0l-30.82 30.83c-4.18,4.28 -4.17,11.13 0.03,15.39l15.3 15.3c-2.2,4.4 -4.07,8.96 -5.61,13.63l-21.68 0c-6.02,0 -10.89,4.88 -10.89,10.89l0 43.57c0,6.02 4.88,10.89 10.89,10.89l21.68 0c1.54,4.67 3.42,9.22 5.63,13.62l-15.32 15.32c-4.24,4.25 -4.24,11.13 0,15.38l30.82 30.87c4.29,4.18 11.13,4.15 15.39,-0.05l15.3 -15.3c4.41,2.2 8.97,4.08 13.65,5.62l0 21.68c0,6.02 4.88,10.89 10.89,10.89l43.57 0c6.02,0 10.89,-4.88 10.89,-10.89l0 -21.68c4.67,-1.54 9.22,-3.42 13.62,-5.62l15.29 15.3c4.29,4.21 11.16,4.21 15.44,0l30.8 -30.82c4.24,-4.25 4.24,-11.13 0,-15.39l-15.3 -15.3c2.2,-4.4 4.07,-8.96 5.61,-13.63l21.68 0c6.02,0 10.89,-4.88 10.89,-10.89l0 -43.57c-0,-6.02 -4.88,-10.89 -10.89,-10.89l0 0zm0 54.46l-25.71 0c-2.43,-0 -4.57,1.61 -5.24,3.95 -1.88,6.59 -4.5,12.95 -7.8,18.96 -1.17,2.12 -0.8,4.77 0.92,6.48l18.13 18.12 -30.8 30.82 -18.14 -18.14c-1.71,-1.72 -4.36,-2.09 -6.48,-0.92 -6,3.31 -12.36,5.93 -18.95,7.81 -2.34,0.66 -3.96,2.8 -3.96,5.24l0 25.71 -43.57 0 0 -25.71c0,-2.44 -1.62,-4.57 -3.96,-5.24 -6.59,-1.88 -12.95,-4.5 -18.95,-7.81 -2.12,-1.17 -4.77,-0.8 -6.48,0.92l-18.16 18.14 -30.78 -30.8 18.14 -18.14c1.71,-1.72 2.09,-4.36 0.92,-6.48 -3.31,-6 -5.93,-12.36 -7.8,-18.96 -0.67,-2.34 -2.81,-3.95 -5.24,-3.95l-25.71 0 0 -43.57 25.71 0c2.43,0 4.57,-1.61 5.24,-3.95 1.88,-6.59 4.5,-12.95 7.8,-18.96 1.17,-2.12 0.8,-4.76 -0.92,-6.48l-18.14 -18.17 30.8 -30.77 18.14 18.14c1.71,1.72 4.36,2.09 6.48,0.92 6,-3.31 12.36,-5.93 18.95,-7.81 2.34,-0.66 3.96,-2.8 3.96,-5.24l0 -25.71 43.57 0 0 25.71c0,2.44 1.62,4.57 3.96,5.24 6.59,1.88 12.95,4.5 18.95,7.81 2.12,1.17 4.77,0.8 6.48,-0.92l18.17 -18.14 30.77 30.8 -18.14 18.14c-1.71,1.72 -2.09,4.36 -0.92,6.48 3.31,6 5.93,12.36 7.8,18.96 0.67,2.34 2.81,3.95 5.24,3.95l25.71 0 0 43.57z"/>
    <polygon class="fil2" points="43.57,125.26 87.14,125.26 87.14,136.15 43.57,136.15 "/>
    <polygon class="fil2" points="65.35,147.04 87.14,147.04 87.14,157.94 65.35,157.94 "/>
    <polygon class="fil2" points="65.35,103.48 87.14,103.48 87.14,114.37 65.35,114.37 "/>
    <polygon class="fil2" points="174.27,125.26 217.84,125.26 217.84,136.15 174.27,136.15 "/>
    <polygon class="fil2" points="174.27,147.04 196.06,147.04 196.06,157.94 174.27,157.94 "/>
    <polygon class="fil2" points="174.27,103.48 196.06,103.48 196.06,114.37 174.27,114.37 "/>
    <path class="fil2" d="M163.38 168.83l-65.35 0c-3.01,0 -5.45,-2.44 -5.45,-5.45l-10.89 0c0,9.02 7.32,16.34 16.34,16.34l5.45 0 0 16.34 10.89 0 0 -16.34 10.89 0 0 38.12 10.89 0 0 -38.12 10.89 0 0 16.34 10.89 0 0 -16.34 5.45 0c9.02,0 16.34,-7.32 16.34,-16.34l-10.89 0c0,3.01 -2.44,5.45 -5.45,5.45z"/>
    <path class="fil2" d="M98.03 92.58l65.35 0c3.01,0 5.45,2.44 5.45,5.45l10.89 0c0,-9.02 -7.32,-16.34 -16.34,-16.34l-5.45 0 0 -16.34 -10.89 0 0 16.34 -10.89 0 0 -38.12 -10.89 0 0 38.12 -10.89 0 0 -16.34 -10.89 0 0 16.34 -5.45 0c-9.02,0 -16.34,7.32 -16.34,16.34l10.89 0c0,-3.01 2.44,-5.45 5.45,-5.45z"/>
    <path class="fil2" d="M163.38 108.92c0,-3.01 -2.44,-5.45 -5.45,-5.45l-54.46 -0c-3.01,0 -5.45,2.44 -5.45,5.45l0 27.23 10.89 0 0 -21.78 43.57 0 0 21.78 10.89 0 0 -27.23z"/>
    <polygon class="fil2" points="98.03,147.04 163.38,147.04 163.38,157.94 98.03,157.94 "/>
    <polygon class="fil2" points="125.26,21.78 136.15,21.78 136.15,32.68 125.26,32.68 "/>
    <polygon class="fil2" points="125.26,228.74 136.15,228.74 136.15,239.63 125.26,239.63 "/>
    <polygon class="fil2" points="21.78,125.26 32.68,125.26 32.68,136.15 21.78,136.15 "/>
    <polygon class="fil2" points="228.74,125.26 239.63,125.26 239.63,136.15 228.74,136.15 "/>
    <polygon class="fil2" points="119.81,125.26 141.6,125.26 141.6,136.15 119.81,136.15 "/>
   </g>
   <g>
   </g>
   <g>
   </g>
   <g>
   </g>
   <g>
   </g>
   <g>
   </g>
   <g>
   </g>
   <g>
   </g>
   <g>
   </g>
   <g>
   </g>
   <g>
   </g>
   <g>
   </g>
   <g>
   </g>
   <g>
   </g>
   <g>
   </g>
   <g>
   </g>
  </g>
 </g>
</svg>
