<?xml version="1.0" encoding="UTF-8"?>
<!DOCTYPE svg PUBLIC "-//W3C//DTD SVG 1.1//EN" "http://www.w3.org/Graphics/SVG/1.1/DTD/svg11.dtd">
<!-- Creator: CorelDRAW 2020 (64 Bit) -->
<svg xmlns="http://www.w3.org/2000/svg" xml:space="preserve" width="33.0609mm" height="29.9657mm" version="1.1" style="shape-rendering:geometricPrecision; text-rendering:geometricPrecision; image-rendering:optimizeQuality; fill-rule:evenodd; clip-rule:evenodd"
viewBox="0 0 1736.85 1574.25"
 xmlns:xlink="http://www.w3.org/1999/xlink"
 xmlns:xodm="http://www.corel.com/coreldraw/odm/2003">
 <defs>
  <style type="text/css">
   <![CDATA[
    .fil0 {fill:white;fill-rule:nonzero}
    .fil1 {fill:white;fill-rule:nonzero}
   ]]>
  </style>
 </defs>
 <g id="Camada_x0020_1">
  <metadata id="CorelCorpID_0Corel-Layer"/>
  <g id="_2239510304336">
   <g>
    <g>
     <g>
      <path class="fil0" d="M868.07 0c-310.92,0 -562.97,252.05 -562.97,562.96 0,310.92 252.05,562.97 562.97,562.97 310.92,0 562.96,-252.05 562.96,-562.97 0,-310.92 -252.05,-562.96 -562.96,-562.96zm-56.3 788.16c0,31.09 -25.21,56.3 -56.3,56.3l-56.3 0c-31.09,0 -56.3,-25.21 -56.3,-56.3l0 -450.38c0,-31.09 25.21,-56.3 56.3,-56.3l56.3 0c31.09,0 56.3,25.21 56.3,56.3l0.01 450.38zm281.48 0c0,31.09 -25.21,56.3 -56.3,56.3l-56.3 0c-31.09,0 -56.3,-25.21 -56.3,-56.3l0 -450.38c0,-31.09 25.2,-56.3 56.3,-56.3l56.3 0c31.09,0 56.3,25.21 56.3,56.3l0 450.38z" data-original="#000000" data-old_color="#000000"/>
     </g>
    </g>
   </g>
  </g>
  <path class="fil1" d="M48.61 1571.07c24.3,0 48.32,0 48.32,-11.86l0 -124.03 73.2 0c65.2,0 122.87,-50.24 122.87,-128.84 0,-78.21 -57.67,-128.84 -122.87,-128.84l-162.49 0c-4.25,0 -7.63,3.66 -7.63,8.2l0 373.8c0,11.57 24.01,11.57 48.61,11.57zm107.05 -229.14l-58.73 0 0 -70.6 58.73 0c19.48,0 35.1,15.82 35.1,35.29 0,19.49 -15.62,35.31 -35.1,35.31zm245.34 232.31c38.38,0 61.53,-15.62 77.93,-39.34l0 24.88c0,11.29 22.09,11.29 44.07,11.29 21.8,0 43.59,0 43.59,-11.29l0 -174.85c0,-79.74 -44.07,-110.22 -115.62,-110.22 -38.67,0 -72.05,9.35 -111,30.28 -4.24,2.23 -5.97,6.18 -5.97,11.29 0,7.92 4.23,18.33 8.77,29.32 6.85,16.39 15.04,31.73 23.14,31.73 1.16,0 2.31,-0.29 3.47,-0.86 29.89,-15.81 55.07,-21.23 76.76,-21.23 17.84,0 26.04,9.37 26.04,22.28l0 14.17 -41.28 7.92c-64.13,12.44 -109.55,43.49 -109.55,96.33 0,53.14 35.3,78.31 79.66,78.31zm36.45 -78.59c-12.72,0 -21.21,-7.62 -21.21,-18.32 0,-12.44 10.13,-20.92 22.85,-22.96l33.08 -6.74 0 17.84c0,13.5 -11.58,30.18 -34.72,30.18zm292.97 78.59c35.31,0 59.02,-19.86 77.45,-45.23l0 30.48c0,11.57 22.28,11.57 44.65,11.57 22.27,0 44.64,0 44.64,-11.57l0 -270.13c0,-11.56 -23.53,-11.56 -47.26,-11.56 -23.72,0 -47.44,0 -47.44,11.56l0 150.93c0,24.02 -14.95,44.65 -41.75,44.65 -22.96,0 -33.95,-16.97 -33.95,-36.74l0 -158.84c0,-11.56 -23.73,-11.56 -47.44,-11.56 -23.44,0 -47.44,0 -47.44,11.56l0 165.31c0,74.65 39.53,119.57 98.55,119.57zm326.85 0c72.89,0 133.08,-18.41 132.79,-90.74 0,-71.75 -60.95,-85.64 -100.59,-94.32 -20.54,-4.82 -36.64,-8.77 -36.64,-19.29 0,-10.42 10.13,-16.88 31.34,-16.88 18.33,0 39.83,8.39 57.1,18.04 1.35,0.86 2.79,1.15 4.23,1.15 9.27,0 18.33,-15.82 25.09,-32.5 5.11,-12.73 9.35,-24.59 9.35,-32.78 0,-5.11 -1.45,-8.48 -4.82,-10.41 -27.96,-16.12 -58.43,-21.8 -94.03,-21.8 -71.84,0 -123.25,26.8 -123.25,92.67 0,68.67 60.76,81.4 99.44,90.17 20.63,5.02 37.89,9.27 37.89,21.42 0,10.99 -9.06,16.68 -35.87,16.68 -18.91,0 -48.03,-8.2 -66.65,-18.32 -1.73,-0.87 -3.47,-1.16 -5.11,-1.16 -9.63,0 -16.96,14.37 -24,32.22 -5.41,13.01 -9.65,24.88 -9.65,33.36 0,5.01 1.44,8.68 5.11,10.7 28.25,15.81 62.4,21.79 98.28,21.79zm243.89 0c38.38,0 61.53,-15.62 77.93,-39.34l0 24.88c0,11.29 22.09,11.29 44.07,11.29 21.8,0 43.59,0 43.59,-11.29l0 -174.85c0,-79.74 -44.07,-110.22 -115.62,-110.22 -38.67,0 -72.05,9.35 -111,30.28 -4.24,2.23 -5.97,6.18 -5.97,11.29 0,7.92 4.24,18.33 8.77,29.32 6.85,16.39 15.04,31.73 23.14,31.73 1.16,0 2.31,-0.29 3.47,-0.86 29.89,-15.81 55.07,-21.23 76.76,-21.23 17.84,0 26.04,9.37 26.04,22.28l0 14.17 -41.28 7.92c-64.13,12.44 -109.56,43.49 -109.56,96.33 0,53.14 35.31,78.31 79.66,78.31zm36.45 -78.59c-12.73,0 -21.21,-7.62 -21.21,-18.32 0,-12.44 10.13,-20.92 22.85,-22.96l33.08 -6.74 0 17.84c0,13.5 -11.57,30.18 -34.72,30.18zm250.35 75.42c24.02,0 47.73,0 47.73,-11.57l0 -138.97c0,-29.41 12.15,-52.84 38.97,-52.84 7.32,0 14.65,1.43 24.59,7.03 1.74,1.15 3.38,1.74 5.11,1.74 9.83,0 18.32,-18.71 24.3,-36.75 3.67,-10.99 8.19,-24.59 8.19,-34.72 0,-5.4 -1.15,-9.63 -3.95,-12.44 -14.46,-12.72 -26.33,-17.84 -40.12,-17.84 -24.88,0 -45.52,13.03 -62.78,40.69l0 -24.88c0,-12.44 -22.27,-12.44 -44.65,-12.44 -22.28,0 -44.64,0 -44.64,12.44l0 268.97c0,11.57 23.53,11.57 47.25,11.57z"/>
 </g>
</svg>
